<svg xmlns="http://www.w3.org/2000/svg" viewBox="0 0 155 155"><circle cx="77.5" cy="77.5" r="77.5" fill="#C9B291"/><g transform="translate(0 1)"><path d="M143.601 60.5171C156.912 48.3969 146.053 33.0134 154.266 17.4561C146.774 15.4608 141.805 14.9394 138.883 16.4391C131.963 20.1917 129.904 26.4867 128.546 33.0456C127.445 38.1048 125.244 38.388 123.255 38.4781C122.968 28.5343 115.77 22.4677 106.163 23.1783C104.673 23.2886 103.262 23.8561 101.981 24.6257C74.0227 41.4236 46.0582 58.2276 18.0997 75.0316C19.3356 75.2826 20.5714 75.5337 21.8137 75.7847C29.1772 70.9122 34.2878 72.8882 38.3879 77.9216C42.4816 83.7017 40.2996 88.9991 36.2059 92.0629C24.1373 99.4907 12.0686 106.919 0 114.346C1.62203 114.424 3.25049 114.501 4.87251 114.572C11.0066 111.315 16.7352 111.225 20.3139 117.011C23.9442 123.725 21.8652 129.363 15.6217 132.105C15.3771 133.27 15.126 134.442 14.875 135.607C28.1022 127.934 41.323 120.262 54.5503 112.589C65.5697 110.266 74.7033 125.392 61.7464 132.858C61.579 133.946 61.4117 135.027 61.2443 136.115C90.4408 119.013 119.637 101.917 148.834 84.8217C157.504 79.6724 158.102 63.7997 143.594 60.5171H143.601ZM142.339 20.211C143.221 20.211 143.942 20.9255 143.942 21.8137C143.942 22.6955 143.227 23.4164 142.339 23.4164C141.451 23.4164 140.736 22.702 140.736 21.8137C140.736 20.9255 141.451 20.211 142.339 20.211ZM40.4734 75.6946C39.8169 74.8836 39.0252 74.0854 38.0661 73.313C56.1916 62.3129 74.2656 51.3513 92.3975 40.3512C93.8007 39.2698 92.4748 37.3259 90.9429 38.1434C72.4312 49.3753 54.0353 60.5364 35.5236 71.7682C33.9724 71.0152 32.3504 70.6161 30.6511 70.5453C49.1886 59.4743 67.726 48.4098 86.2634 37.3388C99.6645 30.87 109.068 48.2553 97.3602 56.2753C79.0802 67.1983 60.5492 78.2757 42.2692 89.1986C42.9901 87.4478 43.4471 85.7421 43.4149 84.1201C62.2098 72.7016 80.9082 61.3538 99.7031 49.9353C101.164 48.8475 99.7353 46.8908 98.3321 47.6567C79.9169 58.8307 61.5018 70.0046 43.0867 81.1786C42.9064 80.2066 42.5589 79.1446 41.9088 77.9216C41.9088 77.9216 97.2314 44.3612 97.9201 43.917C99.1882 42.9451 97.9137 41.027 96.517 41.7028C77.8379 53.0248 59.1653 64.3533 40.4863 75.6817L40.4734 75.6946ZM24.1952 127.838C24.9161 126.087 25.3731 124.381 25.3409 122.759C44.1358 111.341 62.8277 99.9928 81.6291 88.5742C83.0902 87.48 81.6613 85.5297 80.2581 86.3021C61.8429 97.4761 43.4278 108.65 25.0127 119.824C24.8324 118.852 24.4849 117.79 23.8348 116.567C23.8348 116.567 79.1574 83.0066 79.8461 82.5624C81.1142 81.5905 79.8333 79.6724 78.443 80.3483C59.7704 91.6702 41.0913 102.999 22.4123 114.321C21.7557 113.51 20.964 112.712 20.005 111.939C38.1305 100.939 56.2045 89.9774 74.3364 78.9773C75.7396 77.8959 74.4136 75.952 72.8817 76.7695C54.37 88.0014 35.9742 99.1625 17.4625 110.394C15.9113 109.641 14.2893 109.242 12.59 109.171C31.1274 98.1069 49.6649 87.0359 68.2023 75.9649C81.6033 69.4961 91.0072 86.8814 79.299 94.9014C61.0191 105.824 42.4881 116.902 24.2081 127.825L24.1952 127.838ZM125.334 95.1782C107.054 106.101 88.5227 117.179 70.2427 128.101C70.9636 126.351 71.4206 124.645 71.3884 123.023C90.1833 111.604 108.882 100.257 127.677 88.8381C129.138 87.7439 127.709 85.7936 126.306 86.566C107.89 97.74 89.4753 108.914 71.0602 120.088C70.8799 119.116 70.5324 118.054 69.8823 116.831C69.8823 116.831 125.205 83.2769 125.894 82.8328C127.168 81.8609 125.881 79.9427 124.49 80.6186C105.818 91.9406 87.1388 103.269 68.4598 114.591C67.8032 113.78 67.018 112.982 66.0525 112.209C84.178 101.209 102.252 90.2542 120.384 79.2476C121.787 78.1662 120.461 76.2224 118.929 77.0398C100.418 88.2717 82.0217 99.4328 63.51 110.665C61.9588 109.912 60.3368 109.513 58.6375 109.442C77.1749 98.3708 95.7124 87.3062 114.25 76.2353C127.657 69.7665 137.055 87.1517 125.347 95.1718L125.334 95.1782ZM135.587 60.1952C132.935 59.101 132.787 57.0027 134.441 54.1834C137.299 50.1863 139.868 45.3524 141.515 37.8795C142.416 29.602 145.249 23.1783 151.659 20.1917C148.57 27.7933 149.085 33.8888 149.078 40.1967C149.471 49.3882 146.813 54.9172 142.912 58.6183C140.994 60.4977 138.902 61.5212 135.587 60.1952Z" fill="#141a3c"/></g></svg>
